<svg xmlns="http://www.w3.org/2000/svg" xmlns:xlink="http://www.w3.org/1999/xlink" viewBox="0 0 939.9 221.67"><defs><style>.cls-1{fill:url(#linear-gradient);}.cls-2{fill:url(#linear-gradient-2);}.cls-3{fill:url(#linear-gradient-3);}.cls-4{fill:url(#linear-gradient-4);}.cls-5{fill:url(#linear-gradient-5);}.cls-6{fill:url(#linear-gradient-6);}</style><linearGradient id="linear-gradient" x1="556.76" y1="-88.16" x2="348.85" y2="119.75" gradientUnits="userSpaceOnUse"><stop offset="0" stop-color="#68afe3"/><stop offset="1" stop-color="#a71e86"/></linearGradient><linearGradient id="linear-gradient-2" x1="610.89" y1="-34.02" x2="402.99" y2="173.88" xlink:href="#linear-gradient"/><linearGradient id="linear-gradient-3" x1="720.6" y1="75.69" x2="512.7" y2="283.59" xlink:href="#linear-gradient"/><linearGradient id="linear-gradient-4" x1="816.11" y1="171.2" x2="608.21" y2="379.1" xlink:href="#linear-gradient"/><linearGradient id="linear-gradient-5" x1="185.28" y1="36.39" x2="28.57" y2="193.1" gradientUnits="userSpaceOnUse"><stop offset="0" stop-color="#67a5d4"/><stop offset="1" stop-color="#9b257e"/></linearGradient><linearGradient id="linear-gradient-6" x1="185.28" y1="36.39" x2="28.57" y2="193.1" xlink:href="#linear-gradient-5"/></defs><title>lumogithub</title><g id="Camada_2" data-name="Camada 2"><g id="Layer_1" data-name="Layer 1"><path class="cls-1" d="M294.34,110.84a63.42,63.42,0,0,0,63.42,63.42h63.42V153.12H357.76a42.28,42.28,0,0,1-42.28-42.28V47.41H294.34v63.42Z"/><path class="cls-2" d="M442.33,63.57V47.41H421.19v63.42a63.42,63.42,0,0,0,126.85,0V47.41H526.89v63.42a42.28,42.28,0,0,1-84.56,0Z"/><path class="cls-3" d="M738.31,47.41a63.36,63.36,0,0,0-52.85,28.36,63.42,63.42,0,0,0-95.14-12.2V47.41H569.18V174.26h21.14V110.84a42.28,42.28,0,1,1,84.56,0v63.42H696V110.84a42.28,42.28,0,1,1,84.56,0v63.42h21.14V110.84A63.42,63.42,0,0,0,738.31,47.41Z"/><path class="cls-4" d="M876.47,47.41a63.42,63.42,0,1,0,63.42,63.42A63.42,63.42,0,0,0,876.47,47.41Zm0,105.71a42.28,42.28,0,1,1,42.28-42.28A42.28,42.28,0,0,1,876.47,153.12Z"/><path class="cls-5" d="M168.06,0H53.61A53.67,53.67,0,0,0,0,53.61V168.06a53.67,53.67,0,0,0,53.61,53.61H168.06a53.67,53.67,0,0,0,53.61-53.61V53.61A53.67,53.67,0,0,0,168.06,0Zm34.53,168.06a34.57,34.57,0,0,1-34.53,34.53H53.61a34.57,34.57,0,0,1-34.53-34.53V53.61A34.57,34.57,0,0,1,53.61,19.08H168.06a34.57,34.57,0,0,1,34.53,34.53Z"/><path class="cls-6" d="M110.84,148.59a37.75,37.75,0,0,1-37.75-37.75V54.21H54.21v56.63a56.63,56.63,0,0,0,56.63,56.63h56.63V148.59H110.84Z"/></g></g></svg>